<?xml version="1.0" encoding="utf-8"?>
<!-- Generator: Adobe Illustrator 27.7.0, SVG Export Plug-In . SVG Version: 6.00 Build 0)  -->
<svg version="1.1" id="Layer_1" xmlns="http://www.w3.org/2000/svg" xmlns:xlink="http://www.w3.org/1999/xlink" x="0px" y="0px"
	 width="400px" height="72px" viewBox="0 0 400 72" enable-background="new 0 0 400 72" xml:space="preserve">
<g>
	<g>
		<path fill="#F58426" d="M211.3,36c0-19.8,16.3-35.9,36.5-35.9s36.5,16.1,36.5,35.9S268,71.9,247.8,71.9S211.3,55.8,211.3,36"/>
		<path fill="#FFFFFF" d="M267.1,27.6h-38.7c0-7,5.8-12.7,12.9-12.7h25.8V27.6z"/>
		<path fill="#FFFFFF" d="M228.5,44.5h12.9h12.9c0,7-5.8,12.7-12.9,12.7h-12.9V44.5z"/>
	</g>
	<rect x="228.5" y="29.7" fill="#FFFFFF" width="38.7" height="12.7"/>
	<g>
		<path fill="#6D6E71" d="M388.8,37.6l7.4,13.2h3.8l-9.3-16.3l8.3-13.3h-3.3l-13,20.6c-0.6,1-1.8,3-2.1,3.7V21.2h-3.2v29.6h3.1
			L388.8,37.6z M370,50.8V21.2h-3.2v24.3c-0.4-0.8-1.5-2.7-2.1-3.7l-13-20.6h-3.3v29.6h3.2v-24c0.4,0.8,1.5,2.7,2.1,3.7l13.1,20.2
			H370z M337,40.3h-10.4l3.3-9.6c0.7-2.1,1.6-4.7,1.9-5.9c0.3,1.2,1.2,3.9,1.8,5.8L337,40.3z M344.1,50.8l-10.4-29.6H330l-10.4,29.6
			h3.4l2.6-7.5H338l2.6,7.5H344.1z M314.4,42.2c0,3.4-1.7,5.6-6.2,5.6h-7.6V36.4h7.5C311.9,36.4,314.4,38.5,314.4,42.2 M313,28.7
			c0,2.6-1.5,4.7-5.2,4.7h-7.3v-9.2h7.5C311.4,24.2,313,26,313,28.7 M317.8,42.1c0-4.8-3-6.7-5.8-7.4c2.5-0.9,4.3-2.8,4.3-6
			c0-5.1-3.4-7.4-8.2-7.4h-11v29.6H308C314.3,50.8,317.8,47.9,317.8,42.1"/>
		<path fill="#6D6E71" d="M186.5,33.3c-0.2-1.7-0.9-4.6-1.8-7.6l-1.3-4.5h-9.6l8,21l-4.6,8.6h8.4l16.8-29.6H193L186.5,33.3z
			 M171.6,28.4l1.5-7.1H148l-1.5,7.1h8.4L150,50.8h8.3l4.9-22.4H171.6z M137.6,50.8l6.4-29.6h-8.5l-6.4,29.6H137.6z M126.2,50.8
			l1.5-7.1h-13.3l4.9-22.4h-8.4l-6.4,29.6H126.2z M64.4,36c-1.3,5.9-3.7,7.8-8.9,7.8h-1.8l3.4-15.5h2.1C64.4,28.2,65.6,30.5,64.4,36
			 M73,35.8c2.4-11.1-2.8-14.6-12.3-14.6H50.2l-6.4,29.6h9.8C64.2,50.8,70.6,47,73,35.8 M36,50.8l6.4-29.6h-8.5l-6.4,29.6H36z
			 M27.2,28.2h-14l-0.9,4.1h12.5l-1.5,6.9H10.8L8.3,50.8H0l6.4-29.6h22.3L27.2,28.2z M97.8,50.8h-23l6.4-29.6h23l-1.5,6.9H87.9
			L87.1,32h13.3l-1.5,6.8H85.6l-1.1,5.1h14.8L97.8,50.8z"/>
	</g>
</g>
</svg>
