<?xml version="1.0" encoding="UTF-8" standalone="no"?>
<!-- Created with Inkscape (http://www.inkscape.org/) -->

<svg
   xmlns:dc="http://purl.org/dc/elements/1.1/"
   xmlns:cc="http://creativecommons.org/ns#"
   xmlns:rdf="http://www.w3.org/1999/02/22-rdf-syntax-ns#"
   xmlns:svg="http://www.w3.org/2000/svg"
   xmlns="http://www.w3.org/2000/svg"
   xmlns:sodipodi="http://sodipodi.sourceforge.net/DTD/sodipodi-0.dtd"
   xmlns:inkscape="http://www.inkscape.org/namespaces/inkscape"
   width="600.79999"
   height="291.474"
   viewBox="0 0 600.79999 291.474"
   id="svg4276"
   version="1.1"
   inkscape:version="0.91 r13725"
   sodipodi:docname="Logo.svg">
  <defs
     id="defs4278">
    <clipPath
       clipPathUnits="userSpaceOnUse"
       id="clipPath4180">
      <path
         d="M 0,0 594,0 594,846 0,846 0,0 Z"
         id="path4182"
         inkscape:connector-curvature="0" />
    </clipPath>
  </defs>
  <sodipodi:namedview
     id="base"
     pagecolor="#ffffff"
     bordercolor="#666666"
     borderopacity="1.0"
     inkscape:pageopacity="0.0"
     inkscape:pageshadow="2"
     inkscape:zoom="0.98994949"
     inkscape:cx="348.23348"
     inkscape:cy="123.69935"
     inkscape:document-units="px"
     inkscape:current-layer="g4260"
     showgrid="false"
     units="px"
     inkscape:window-width="1920"
     inkscape:window-height="1057"
     inkscape:window-x="-8"
     inkscape:window-y="-8"
     inkscape:window-maximized="1" />
  <metadata
     id="metadata4281">
    <rdf:RDF>
      <cc:Work
         rdf:about="">
        <dc:format>image/svg+xml</dc:format>
        <dc:type
           rdf:resource="http://purl.org/dc/dcmitype/StillImage" />
        <dc:title></dc:title>
      </cc:Work>
    </rdf:RDF>
  </metadata>
  <g
     inkscape:label="Layer 1"
     inkscape:groupmode="layer"
     id="layer1"
     transform="translate(0,-760.88814)">
    <g
       transform="matrix(3.6696776,0,0,-3.6696776,-1198.1223,2829.5555)"
       id="g4176"
       style="fill:#008cbe;fill-opacity:1;stroke:none">
      <g
         id="g4178"
         clip-path="url(#clipPath4180)"
         style="fill:#008cbe;fill-opacity:1;stroke:none">
        <g
           id="g4184"
           transform="translate(330.27352,495.45272)"
           style="fill:#008cbe;fill-opacity:1;stroke:none">
          <path
             d="M 0,0 C 1.682,0.039 2.543,0.154 2.543,2.582 2.543,5.012 1.682,5.127 0,5.164 L 0,0 Z m -2.793,4.494 c 0,1.07 -0.879,0.518 -0.879,1.07 l 0,0.596 5.182,0 c 3.004,0 3.902,-1.781 3.902,-3.387 0,-1.644 -0.975,-3.232 -3.117,-3.232 l -0.307,0 0,-0.113 c 1.149,-0.231 1.36,-0.631 1.799,-1.514 l 1.797,-3.498 c 0.514,-1.033 1.07,-0.859 1.07,-1.129 l 0,-0.516 -3.326,0 -2.584,5.584 C 0.516,-1.166 0.324,-1.014 0,-0.994 l 0,-4.571 c 0,-1.07 0.881,-0.517 0.881,-1.07 l 0,-0.594 -4.553,0 0,0.594 c 0,0.553 0.879,0 0.879,1.07 l 0,10.059 z"
             style="fill:#008cbe;fill-opacity:1;fill-rule:nonzero;stroke:none"
             id="path4186"
             inkscape:connector-curvature="0" />
        </g>
        <g
           id="g4188"
           transform="translate(341.88102,493.99952)"
           style="fill:#008cbe;fill-opacity:1;stroke:none">
          <path
             d="M 0,0 0,0.594 C 0,2.084 -0.402,2.6 -1.166,2.6 -2.275,2.6 -2.58,1.434 -2.58,0 L 0,0 Z m -2.58,-1.07 0,-0.746 c 0,-1.493 0.457,-3.157 2.006,-3.157 1.494,0 2.201,1.09 2.506,2.125 l 0.822,-0.595 c -0.592,-1.739 -1.721,-2.6 -3.652,-2.6 -2.772,0 -4.551,2.086 -4.551,4.856 0,2.773 1.797,4.859 4.205,4.859 2.81,0 3.922,-2.123 3.922,-4.381 l 0,-0.361 -5.258,0 z"
             style="fill:#008cbe;fill-opacity:1;fill-rule:nonzero;stroke:none"
             id="path4190"
             inkscape:connector-curvature="0" />
        </g>
        <g
           id="g4192"
           transform="translate(348.38292,489.50742)"
           style="fill:#008cbe;fill-opacity:1;stroke:none">
          <path
             d="m 0,0 c 0.268,-0.229 0.555,-0.367 0.879,-0.367 1.283,0 1.436,1.951 1.436,3.578 0,1.836 -0.153,3.768 -1.417,3.768 C 0.479,6.979 0.191,6.768 0,6.576 L 0,0 Z m 0,-3.711 c 0,-0.822 0.937,-0.346 0.937,-0.937 l 0,-0.459 -4.4,0 0,0.459 c 0,0.591 0.94,0.115 0.94,0.937 l 0,10.213 c 0,0.822 -0.94,0.342 -0.94,0.934 l 0,0.46 3.235,0 0,-0.46 c 0.552,0.48 1.126,0.728 1.873,0.728 1.646,0 3.461,-1.434 3.461,-4.859 0,-3.422 -1.875,-4.856 -3.518,-4.856 -0.69,0 -1.127,0.155 -1.588,0.362 l 0,-2.522 z"
             style="fill:#008cbe;fill-opacity:1;fill-rule:nonzero;stroke:none"
             id="path4194"
             inkscape:connector-curvature="0" />
        </g>
        <g
           id="g4196"
           transform="translate(359.70322,496.00942)"
           style="fill:#008cbe;fill-opacity:1;stroke:none">
          <path
             d="m 0,0 c 0,0.822 -0.935,0.342 -0.935,0.934 l 0,0.46 3.46,0 0,-7.783 c 0,-0.824 0.936,-0.342 0.936,-0.937 l 0,-0.459 -3.461,0 0,0.728 c -0.518,-0.461 -1.146,-0.996 -2.295,-0.996 -1.969,0 -2.543,1.244 -2.543,2.985 l 0,5.068 c 0,0.822 -0.935,0.342 -0.935,0.934 l 0,0.46 3.46,0 0,-6.634 c 0,-0.864 0.231,-1.551 0.975,-1.551 0.496,0 0.879,0.402 1.338,0.881 L 0,0 Z"
             style="fill:#008cbe;fill-opacity:1;fill-rule:nonzero;stroke:none"
             id="path4198"
             inkscape:connector-curvature="0" />
        </g>
        <g
           id="g4200"
           transform="translate(366.49232,489.39022)"
           style="fill:#008cbe;fill-opacity:1;stroke:none">
          <path
             d="m 0,0 c 0.211,-0.209 0.518,-0.437 0.935,-0.437 0.92,0.017 1.38,0.916 1.38,3.726 0,2.813 -0.538,3.807 -1.454,3.807 C 0.479,7.096 0.191,6.941 0,6.752 L 0,0 Z m -2.523,10.826 c 0,0.822 -0.938,0.344 -0.938,0.936 l 0,0.461 3.461,0 0,-4.457 c 0.441,0.248 1.033,0.535 1.797,0.515 1.512,-0.039 3.31,-1.511 3.31,-4.877 0,-2.734 -1.361,-4.838 -3.884,-4.838 -0.899,0 -1.567,0.248 -2.276,0.936 l -0.859,-0.668 -0.611,0 0,11.992 z"
             style="fill:#008cbe;fill-opacity:1;fill-rule:nonzero;stroke:none"
             id="path4202"
             inkscape:connector-curvature="0" />
        </g>
        <g
           id="g4204"
           transform="translate(375.63292,489.62062)"
           style="fill:#008cbe;fill-opacity:1;stroke:none">
          <path
             d="m 0,0 c 0,-0.824 0.937,-0.342 0.937,-0.937 l 0,-0.459 -4.398,0 0,0.459 c 0,0.595 0.94,0.113 0.94,0.937 l 0,10.596 c 0,0.822 -0.94,0.344 -0.94,0.935 l 0,0.461 3.461,0 L 0,0 Z"
             style="fill:#008cbe;fill-opacity:1;fill-rule:nonzero;stroke:none"
             id="path4206"
             inkscape:connector-curvature="0" />
        </g>
        <g
           id="g4208"
           transform="translate(377.31652,500.04262)"
           style="fill:#008cbe;fill-opacity:1;stroke:none">
          <path
             d="M 0,0 C 0,0.822 0.553,1.57 1.436,1.57 2.311,1.57 2.869,0.822 2.869,0 2.869,-0.822 2.311,-1.568 1.436,-1.568 0.553,-1.568 0,-0.822 0,0 m 2.869,-10.422 c 0,-0.824 0.936,-0.342 0.936,-0.937 l 0,-0.459 -4.399,0 0,0.459 c 0,0.595 0.94,0.113 0.94,0.937 l 0,6.389 c 0,0.822 -0.94,0.342 -0.94,0.933 l 0,0.461 3.463,0 0,-7.783 z"
             style="fill:#008cbe;fill-opacity:1;fill-rule:nonzero;stroke:none"
             id="path4210"
             inkscape:connector-curvature="0" />
        </g>
        <g
           id="g4212"
           transform="translate(388.78922,490.34732)"
           style="fill:#008cbe;fill-opacity:1;stroke:none">
          <path
             d="m 0,0 c -0.479,-1.988 -1.969,-2.391 -3.193,-2.391 -2.448,0 -4.244,2.086 -4.244,4.856 0,2.773 1.796,4.859 4.281,4.859 1.742,0 3.062,-0.957 3.062,-2.26 0,-0.705 -0.461,-1.335 -1.302,-1.335 -0.84,0 -1.223,0.478 -1.223,0.974 0,0.611 0.346,0.785 0.346,1.225 0,0.382 -0.346,0.515 -0.748,0.515 -1.299,0 -1.741,-1.836 -1.741,-3.898 0,-2.008 0.555,-3.865 2.047,-3.865 1.164,0 1.662,0.996 1.856,1.97 L 0,0 Z"
             style="fill:#008cbe;fill-opacity:1;fill-rule:nonzero;stroke:none"
             id="path4214"
             inkscape:connector-curvature="0" />
        </g>
        <g
           id="g4216"
           transform="translate(396.87902,489.40982)"
           style="fill:#008cbe;fill-opacity:1;stroke:none">
          <path
             d="m 0,0 1.012,0 c 1.97,0 2.679,0.977 2.679,2.334 0,1.988 -0.902,2.926 -2.679,2.926 L 0,5.26 0,0 Z m 0,6.443 0.84,0 c 1.662,0 2.336,1.09 2.336,2.356 0,1.547 -0.729,2.408 -2.336,2.408 l -0.84,0 0,-4.764 z m -3.672,-7.629 0,0.594 c 0,0.553 0.879,0 0.879,1.071 l 0,10.058 c 0,1.07 -0.879,0.518 -0.879,1.07 l 0,0.596 5.719,0 c 2.637,0 3.996,-1.17 3.996,-3.099 0,-1.95 -1.492,-2.946 -3.119,-3.102 l 0,-0.033 C 4.82,5.871 6.789,4.896 6.789,2.449 6.789,0.727 5.602,-1.186 2.143,-1.186 l -5.815,0 z"
             style="fill:#008cbe;fill-opacity:1;fill-rule:nonzero;stroke:none"
             id="path4218"
             inkscape:connector-curvature="0" />
        </g>
        <g
           id="g4220"
           transform="translate(409.02162,493.25352)"
           style="fill:#008cbe;fill-opacity:1;stroke:none">
          <path
             d="m 0,0 c -1.07,-0.135 -2.316,-0.766 -2.316,-2.506 0,-0.82 0.269,-1.529 0.996,-1.529 0.804,0 1.32,0.709 1.32,2.008 L 0,0 Z m 2.525,-2.943 c 0,-0.479 0,-1.053 0.534,-1.053 0.154,0 0.248,0.057 0.365,0.133 L 3.863,-4.207 C 3.557,-4.99 2.85,-5.297 2.199,-5.297 c -1.168,0 -1.568,0.69 -1.875,1.207 -0.59,-0.615 -1.127,-1.207 -2.428,-1.207 -1.703,0 -2.886,1.11 -2.886,2.697 0,2.371 2.062,2.887 4.99,3.596 -0.037,1.319 -0.076,2.541 -1.377,2.541 -0.479,0 -0.746,-0.226 -0.746,-0.687 0,-0.211 0.037,-0.381 0.037,-0.575 0,-0.765 -0.477,-1.109 -1.127,-1.109 -0.727,0 -1.205,0.479 -1.205,1.242 0,1.053 1.072,2.01 2.889,2.01 2.14,0 4.054,-0.9 4.054,-3.846 l 0,-3.515 z"
             style="fill:#008cbe;fill-opacity:1;fill-rule:nonzero;stroke:none"
             id="path4222"
             inkscape:connector-curvature="0" />
        </g>
        <g
           id="g4224"
           transform="translate(413.72472,496.00942)"
           style="fill:#008cbe;fill-opacity:1;stroke:none">
          <path
             d="m 0,0 c 0,0.822 -0.935,0.342 -0.935,0.934 l 0,0.46 3.46,0 0,-0.726 C 3.252,1.299 4,1.662 4.897,1.662 6.35,1.662 7.361,0.668 7.361,-1.19 l 0,-5.199 c 0,-0.824 0.94,-0.342 0.94,-0.937 l 0,-0.459 -4.264,0 0,0.459 c 0,0.595 0.801,0.113 0.801,0.937 l 0,5.317 c 0,0.955 -0.305,1.47 -0.936,1.47 -0.574,0 -1.052,-0.437 -1.377,-0.879 l 0,-5.908 c 0,-0.824 0.803,-0.342 0.803,-0.937 l 0,-0.459 -4.263,0 0,0.459 C -0.935,-6.731 0,-7.213 0,-6.389 L 0,0 Z"
             style="fill:#008cbe;fill-opacity:1;fill-rule:nonzero;stroke:none"
             id="path4226"
             inkscape:connector-curvature="0" />
        </g>
        <g
           id="g4228"
           transform="translate(425.61932,501.61292)"
           style="fill:#008cbe;fill-opacity:1;stroke:none">
          <path
             d="m 0,0 0,-8.072 1.932,1.779 c 0.267,0.229 0.498,0.533 0.498,0.727 0,0.611 -0.823,0.248 -0.823,0.839 l 0,0.518 3.709,0 0,-0.535 c 0,-0.248 -0.211,-0.326 -0.4,-0.402 C 4.609,-5.262 4.148,-5.623 3.863,-5.891 l -1.644,-1.552 2.697,-4.455 c 0.437,-0.705 0.936,-0.592 0.936,-1.032 l 0,-0.459 -4.397,0 0,0.459 c 0,0.518 0.57,0.307 0.57,0.786 0,0.304 -0.189,0.591 -0.418,0.974 L 0.346,-9.064 0,-9.355 0,-11.992 c 0,-0.824 0.709,-0.342 0.709,-0.938 l 0,-0.459 -4.17,0 0,0.459 c 0,0.596 0.939,0.114 0.939,0.938 l 0,10.596 c 0,0.822 -0.939,0.343 -0.939,0.935 L -3.461,0 0,0 Z"
             style="fill:#008cbe;fill-opacity:1;fill-rule:nonzero;stroke:none"
             id="path4230"
             inkscape:connector-curvature="0" />
        </g>
        <g
           id="g4232"
           transform="translate(436.42592,499.94692)"
           style="fill:#008cbe;fill-opacity:1;stroke:none">
          <path
             d="m 0,0 c 0,1.07 -0.883,0.518 -0.883,1.07 l 0,0.596 4.555,0 0,-0.596 c 0,-0.552 -0.881,0 -0.881,-1.07 l 0,-10.729 1.088,0 c 1.971,0 2.336,0.881 2.506,1.684 0.115,0.555 0.115,1.338 0.842,1.338 l 0.46,0 0,-4.016 -8.57,0 0,0.594 c 0,0.553 0.883,0 0.883,1.07 L 0,0 Z"
             style="fill:#008cbe;fill-opacity:1;fill-rule:nonzero;stroke:none"
             id="path4234"
             inkscape:connector-curvature="0" />
        </g>
        <g
           id="g4236"
           transform="translate(444.43762,500.04262)"
           style="fill:#008cbe;fill-opacity:1;stroke:none">
          <path
             d="M 0,0 C 0,0.822 0.553,1.57 1.434,1.57 2.313,1.57 2.867,0.822 2.867,0 2.867,-0.822 2.313,-1.568 1.434,-1.568 0.553,-1.568 0,-0.822 0,0 m 2.867,-10.422 c 0,-0.824 0.936,-0.342 0.936,-0.937 l 0,-0.459 -4.395,0 0,0.459 c 0,0.595 0.936,0.113 0.936,0.937 l 0,6.389 c 0,0.822 -0.936,0.342 -0.936,0.933 l 0,0.461 3.459,0 0,-7.783 z"
             style="fill:#008cbe;fill-opacity:1;fill-rule:nonzero;stroke:none"
             id="path4238"
             inkscape:connector-curvature="0" />
        </g>
        <g
           id="g4240"
           transform="translate(451.93372,497.40382)"
           style="fill:#008cbe;fill-opacity:1;stroke:none">
          <path
             d="m 0,0 0,-0.633 c 0.668,0.615 1.436,0.901 2.293,0.901 0.92,0 1.684,-0.461 2.066,-1.051 0.785,0.648 1.493,1.051 2.545,1.051 1.451,0 2.506,-0.823 2.506,-2.985 l 0,-5.066 c 0,-0.824 0.934,-0.342 0.934,-0.938 l 0,-0.459 -4.264,0 0,0.459 c 0,0.596 0.803,0.114 0.803,0.938 l 0,5.392 c 0,0.823 -0.266,1.395 -0.936,1.395 -0.498,0 -0.92,-0.285 -1.244,-0.725 l 0,-6.062 c 0,-0.824 0.67,-0.342 0.67,-0.938 l 0,-0.459 -3.863,0 0,0.459 c 0,0.596 0.67,0.114 0.67,0.938 l 0,5.392 c 0,0.823 -0.268,1.395 -0.938,1.395 -0.498,0 -0.918,-0.285 -1.242,-0.725 l 0,-6.062 c 0,-0.824 0.937,-0.342 0.937,-0.938 l 0,-0.459 -4.398,0 0,0.459 c 0,0.596 0.938,0.114 0.938,0.938 l 0,6.389 c 0,0.822 -0.938,0.341 -0.938,0.933 L -3.461,0 0,0 Z"
             style="fill:#008cbe;fill-opacity:1;fill-rule:nonzero;stroke:none"
             id="path4242"
             inkscape:connector-curvature="0" />
        </g>
        <g
           id="g4244"
           transform="translate(463.09972,500.04262)"
           style="fill:#008cbe;fill-opacity:1;stroke:none">
          <path
             d="M 0,0 C 0,0.822 0.557,1.57 1.434,1.57 2.315,1.57 2.869,0.822 2.869,0 2.869,-0.822 2.315,-1.568 1.434,-1.568 0.557,-1.568 0,-0.822 0,0 m 2.869,-10.422 c 0,-0.824 0.94,-0.342 0.94,-0.937 l 0,-0.459 -4.401,0 0,0.459 c 0,0.595 0.936,0.113 0.936,0.937 l 0,6.389 c 0,0.822 -0.936,0.342 -0.936,0.933 l 0,0.461 3.461,0 0,-7.783 z"
             style="fill:#008cbe;fill-opacity:1;fill-rule:nonzero;stroke:none"
             id="path4246"
             inkscape:connector-curvature="0" />
        </g>
        <g
           id="g4248"
           transform="translate(472.49032,496.21632)"
           style="fill:#008cbe;fill-opacity:1;stroke:none">
          <path
             d="m 0,0 -1.99,0 0,-6.137 c 0,-0.459 0.211,-0.746 0.709,-0.746 0.326,0 0.611,0.174 0.861,0.324 L 0.192,-7.15 c -0.594,-0.803 -1.454,-1.11 -2.372,-1.11 -1.799,0 -2.334,0.899 -2.334,2.354 l 0,5.906 -0.935,0 0,0.748 c 0,0.629 1.014,0.133 1.014,1.395 0,1.797 0.074,1.931 0.841,1.951 l 1.604,0.056 0,-2.963 1.99,0 L 0,0 Z"
             style="fill:#008cbe;fill-opacity:1;fill-rule:nonzero;stroke:none"
             id="path4250"
             inkscape:connector-curvature="0" />
        </g>
        <g
           id="g4252"
           transform="translate(478.26562,493.99952)"
           style="fill:#008cbe;fill-opacity:1;stroke:none">
          <path
             d="M 0,0 0,0.594 C 0,2.084 -0.402,2.6 -1.166,2.6 -2.275,2.6 -2.582,1.434 -2.582,0 L 0,0 Z m -2.582,-1.07 0,-0.746 c 0,-1.493 0.459,-3.157 2.01,-3.157 1.49,0 2.197,1.09 2.504,2.125 l 0.822,-0.595 c -0.594,-1.739 -1.723,-2.6 -3.652,-2.6 -2.774,0 -4.551,2.086 -4.551,4.856 0,2.773 1.797,4.859 4.205,4.859 2.812,0 3.922,-2.123 3.922,-4.381 l 0,-0.361 -5.26,0 z"
             style="fill:#008cbe;fill-opacity:1;fill-rule:nonzero;stroke:none"
             id="path4254"
             inkscape:connector-curvature="0" />
        </g>
        <g
           id="g4256"
           transform="translate(486.64062,495.94882)"
           style="fill:#008cbe;fill-opacity:1;stroke:none">
          <path
             d="m 0,0 c -0.133,0.135 -0.477,0.537 -1.012,0.537 -1.246,0 -1.359,-1.816 -1.359,-3.674 0,-1.853 0.113,-3.672 1.242,-3.672 0.555,0 0.902,0.368 1.129,0.653 L 0,0 Z m 2.523,-6.328 c 0,-0.824 0.94,-0.342 0.94,-0.938 l 0,-0.459 -3.367,0 0,0.594 -0.037,0 c -0.231,-0.346 -0.786,-0.861 -1.875,-0.861 -1.989,0 -3.348,2.103 -3.348,4.838 0,2.963 1.934,4.877 3.541,4.877 0.762,0 1.26,-0.286 1.623,-0.479 L 0,4.268 C 0,5.09 -0.937,4.611 -0.937,5.203 l 0,0.461 3.46,0 0,-11.992 z"
             style="fill:#008cbe;fill-opacity:1;fill-rule:nonzero;stroke:none"
             id="path4258"
             inkscape:connector-curvature="0" />
        </g>
        <g
           id="g4260"
           transform="translate(466.9586,696.9872)"
           style="fill:#008cbe;fill-opacity:1;stroke:none">
          <path
             d="m -55.003375,-188.49738 11.045,11.048 -15.563,15.556 c -0.566,0.57 -0.482,1.436 -0.002,1.912 l -11.039,11.042 -12,-11.998 27.559,-27.56 z"
             style="fill:#008cbe;fill-opacity:1;fill-rule:nonzero;stroke:none"
             id="path4262"
             inkscape:connector-curvature="0" />
        </g>
        <g
           id="g4264"
           transform="translate(423.08212,552.48012)"
           style="fill:#008cbe;fill-opacity:1;stroke:none">
          <path
             d="M 0,0 -11.127,11.125 -13.732,8.521 -2.609,-2.604 0,0 Z"
             style="fill:#008cbe;fill-opacity:1;fill-rule:nonzero;stroke:none"
             id="path4266"
             inkscape:connector-curvature="0" />
        </g>
        <g
           id="g4268"
           transform="translate(404.83022,563.61002)"
           style="fill:#008cbe;fill-opacity:1;stroke:none">
          <path
             d="M 0,0 -11.045,-11.044 4.519,-26.607 c 0.52,-0.519 0.536,-1.372 0,-1.909 L 15.56,-39.558 27.56,-27.56 0,0 Z"
             style="fill:#008cbe;fill-opacity:1;fill-rule:nonzero;stroke:none"
             id="path4270"
             inkscape:connector-curvature="0" />
        </g>
        <g
           id="g4272"
           transform="translate(393.70712,519.61732)"
           style="fill:#008cbe;fill-opacity:1;stroke:none">
          <path
             d="m 0,0 11.125,-11.125 2.607,2.61 L 2.611,2.611 0,0 Z"
             style="fill:#008cbe;fill-opacity:1;fill-rule:nonzero;stroke:none"
             id="path4274"
             inkscape:connector-curvature="0" />
        </g>
      </g>
    </g>
  </g>
</svg>
