<?xml version="1.0" encoding="utf-8"?>
<!-- Generator: Adobe Illustrator 22.1.0, SVG Export Plug-In . SVG Version: 6.00 Build 0)  -->
<svg version="1.1" id="Layer_1" xmlns="http://www.w3.org/2000/svg" xmlns:xlink="http://www.w3.org/1999/xlink" x="0px" y="0px"
	 viewBox="0 0 400 92" style="enable-background:new 0 0 400 92;" xml:space="preserve">
<style type="text/css">
	.st0{fill:#231916;stroke:#231916;stroke-width:0.3625;stroke-miterlimit:10;}
	.st1{opacity:0.37;}
	.st2{fill:#FFFFFF;}
	.st3{opacity:0.86;}
	.st4{fill:#231916;}
	.st5{fill:url(#SVGID_1_);}
	.st6{fill:url(#SVGID_2_);}
</style>
<g>
	<g>
		<g>
			<path class="st0" d="M8.4,3.7L22,63.8L35.8,3.7h8.5l14.6,60.4L72.3,3.7h7.8L62.8,74.1h-8.5L39.7,13.9L25.8,74.1h-8.5L0,3.7H8.4z"
				/>
		</g>
	</g>
	<g class="st1">
		
			<image style="overflow:visible;opacity:0.75;" width="77" height="77" xlink:href="AF87CE5AB15A9EF3.png"  transform="matrix(1 0 0 1 323.1029 0.1029)">
		</image>
		<g>
			<path class="st2" d="M386.8,23.9c0.3-0.3,0.5-0.6,0.8-0.8c0.4-0.4,2.2-2.2,3.7-3.8c0,0,0.4-0.5,0.8-0.8c0.5-0.6,0.8-1,1.7-2.5
				c1.1-1.8,1.8-4,2.3-6.6C396.9,5.4,397,2,397,2l-30.9,0l-26.2,0h0l-14.5,0v71.4c1.3,0,14.3,0.1,19.4-6.4c1.1-1.1,6-6.1,11.8-12.2
				c0,0,20-20.4,30.2-31"/>
		</g>
	</g>
	<g class="st3">
		
			<image style="overflow:visible;opacity:0.75;" width="78" height="78" xlink:href="AF87CE5AB15A9EF1.png"  transform="matrix(1 0 0 1 322.6287 -0.3713)">
		</image>
		<g>
			<path class="st4" d="M386.8,23.9c0.3-0.3,0.5-0.6,0.8-0.8c0.4-0.4,2.2-2.2,3.7-3.8c0,0,0.4-0.5,0.8-0.8c0.5-0.6,0.8-1,1.7-2.5
				c1.1-1.8,1.8-4,2.3-6.6C396.9,5.4,397,2,397,2l-30.9,0l-26.2,0h0l-14.5,0v71.4c1.3,0,14.3,0.1,19.4-6.4c1.1-1.1,6-6.1,11.8-12.2
				c0,0,20-20.4,30.2-31"/>
		</g>
	</g>
	<linearGradient id="SVGID_1_" gradientUnits="userSpaceOnUse" x1="301.964" y1="-21.4327" x2="388.5884" y2="65.1917">
		<stop  offset="4.242420e-02" style="stop-color:#00557F"/>
		<stop  offset="0.2848" style="stop-color:#00557F"/>
		<stop  offset="0.3789" style="stop-color:#014E7B"/>
		<stop  offset="0.513" style="stop-color:#053B70"/>
		<stop  offset="0.5333" style="stop-color:#06386E"/>
		<stop  offset="0.5818" style="stop-color:#06386E"/>
		<stop  offset="0.6909" style="stop-color:#06386E"/>
		<stop  offset="0.7879" style="stop-color:#06386E"/>
		<stop  offset="0.8424" style="stop-color:#06386E"/>
		<stop  offset="0.9758" style="stop-color:#06386E"/>
	</linearGradient>
	<path class="st5" d="M386.8,23.9c0.3-0.3,0.5-0.6,0.8-0.8c0.4-0.4,2.2-2.2,3.7-3.8c0,0,0.4-0.5,0.8-0.8c0.5-0.6,0.8-1,1.7-2.5
		c1.1-1.8,1.8-4,2.3-6.6C396.9,5.4,397,2,397,2l-30.9,0l-26.2,0h0l-14.5,0v71.4c1.3,0,14.3,0.1,19.4-6.4c1.1-1.1,6-6.1,11.8-12.2
		c0,0,20-20.4,30.2-31"/>
	<g>
		
			<image style="overflow:visible;" width="116" height="117" xlink:href="AF87CE5AB15A9EF7.png"  transform="matrix(1 0 0 1 308 -13)">
		</image>
	</g>
	<linearGradient id="SVGID_2_" gradientUnits="userSpaceOnUse" x1="347.8864" y1="26.8417" x2="366.3836" y2="45.339">
		<stop  offset="0.3152" style="stop-color:#00648F"/>
		<stop  offset="0.4684" style="stop-color:#015F8B"/>
		<stop  offset="0.6575" style="stop-color:#035080"/>
		<stop  offset="0.855" style="stop-color:#06386E"/>
		<stop  offset="0.9033" style="stop-color:#06386E"/>
		<stop  offset="0.9431" style="stop-color:#06386E"/>
		<stop  offset="0.9758" style="stop-color:#06386E"/>
	</linearGradient>
	<path class="st6" d="M373.5,25.7c-12.9,0.6-26.2,0-26.4,0.1c1.1,22.9,0.1,38.9-2.4,41.4c-0.1,0.1,22.5-23.2,22.5-23.2l20.4-21
		C387.6,23.1,382,25.8,373.5,25.7z"/>
	<g>
		<path class="st4" d="M78.5,31.1c0.9-1.9,2.4-3.5,4.6-4.7c3.2-1.8,7.5-2.7,13-2.8c6,0,10.6,1.1,13.6,3.1c3.7,2.4,5.6,6.4,5.6,12.2
			v18.6l0,3.6l0.1,4.8c0.1,2,0.3,3.5,0.5,4.6l0.6,2.1h-8.5c-0.8-2.3-1.3-4.5-1.4-6.6l-0.7,1.1c-0.8,1.2-1.8,2.3-3,3.2
			c-3,2.4-6.8,3.6-11.4,3.6c-3.1,0-6-0.6-8.6-1.7c-1.9-0.7-3.4-1.7-4.7-3.1c-1.1-1.1-2-2.4-2.6-4c-0.8-1.8-1.2-3.8-1.2-5.9
			c0-1.9,0.3-3.8,1-5.6c0.7-1.8,1.8-3.4,3.3-4.9c1.7-1.8,3.6-3,5.5-3.7c4.2-1.5,9.4-2.3,15.6-2.3h6.6c0-4.9-0.5-8-1.5-9.4
			c-1.6-2.1-4.5-3.2-8.8-3.2c-3,0-5.3,0.5-6.9,1.5c-1.6,0.9-2.7,2.9-3.2,5.9h-9.1C77.4,34.4,77.9,32.3,78.5,31.1z M100.9,49.2
			c-4.5,0-8.2,0.5-11,1.4c-4.1,1.3-6.1,4.1-6.2,8.4c0,2.8,1,5,3,6.4c2,1.4,4.4,2.1,7.1,2.1c6.1,0,9.8-2.4,11.4-7.2
			c0.9-2.8,1.3-6.5,1.3-11.1H100.9z"/>
	</g>
	<g>
		<path class="st4" d="M115.6,23.7h8.8L137.5,60l12.7-36.3h8.4l-19.2,50.9c-1.9,5-3.3,8.2-4.2,9.6c-0.9,1.4-2.1,2.6-3.4,3.6
			c-1.3,1-3,1.7-4.9,2.3c-1.9,0.5-4.1,0.8-6.6,0.8c-1.8,0-3.9-0.3-6.2-0.8l1.6-6.4c1.7,0.3,3.3,0.5,4.6,0.5c3.6,0,6.2-0.7,7.9-2
			c1.7-1.3,3.3-4.2,4.8-8.7c0.3-0.8,0.6-1.6,0.8-2.2L115.6,23.7z"/>
	</g>
	<g>
		<path class="st4" d="M162.1,3.7h8.8v70h-8.8V3.7z"/>
	</g>
	<g>
		<path class="st4" d="M183.9,46c-0.1,0.5-0.1,2.1,0,3.9c0.1,2.5,0.6,4.9,1.5,7c0.9,2.2,2,4.1,3.4,5.7c1.4,1.6,3,2.9,4.9,3.9
			c1.9,0.9,3.9,1.4,6,1.4c3,0,5.7-0.7,8-2c2.3-1.4,4.8-3.3,6.8-5.3l1.2,1.8c-1.2,1.6-2.5,3.1-3.9,4.5c-1.4,1.4-2.9,2.7-4.6,3.8
			c-1.6,1.1-3.4,1.9-5.3,2.6c-1.9,0.6-3.9,0.9-6.1,0.9c-4.3,0-8.2-0.9-10.8-2.6c-2.6-1.7-4.7-3.8-6.2-6.3c-1.5-2.4-2.5-4.9-3.1-7.5
			c-0.5-2.6-1.6-13.9,1.5-20.4c1.5-3.4,3.4-6.1,5.7-8.2c2.3-2.1,4.6-3.5,7.1-4.3c2.5-0.8,5.1-1.3,7-1.3c2.1,0,4.3,0.3,6.4,1
			c2.1,0.7,4.1,1.7,5.8,3c1.7,1.4,3.1,3.1,4.2,5.1c1.1,2.1,1.7,6.7,1.7,9.4c0,0.3,0,1.9,0,2.2c0,0.3-0.1,1.6-0.1,1.6H183.9z
			 M202.6,40.3c1.4,0,2.2-0.3,2.5-0.8c0.3-0.5,0.5-1.1,0.5-1.7c0-2.5-0.8-5.2-2.4-6.9c-1.6-1.8-3.9-2.6-6.9-2.6c-3.3,0-6,1-8.2,3.1
			c-2.1,2-3.5,5.4-4.2,8.9H202.6z"/>
	</g>
	<g>
		<path class="st4" d="M218.1,31.1c0.9-1.9,2.4-3.5,4.6-4.7c3.2-1.8,7.5-2.7,13-2.8c6,0,10.6,1.1,13.6,3.1c3.7,2.4,5.6,6.4,5.6,12.2
			v18.6l0,3.6l0.1,4.8c0.1,2,0.3,3.5,0.5,4.6l0.6,2.1h-8.5c-0.8-2.3-1.3-4.5-1.4-6.6l-0.7,1.1c-0.8,1.2-1.8,2.3-3,3.2
			c-3,2.4-6.8,3.6-11.4,3.6c-3.1,0-6-0.6-8.6-1.7c-1.9-0.7-3.4-1.7-4.7-3.1c-1.1-1.1-2-2.4-2.6-4c-0.8-1.8-1.2-3.8-1.2-5.9
			c0-1.9,0.3-3.8,1-5.6c0.7-1.8,1.8-3.4,3.3-4.9c1.7-1.8,3.6-3,5.5-3.7c4.2-1.5,9.4-2.3,15.6-2.3h6.6c0-4.9-0.5-8-1.5-9.4
			c-1.6-2.1-4.5-3.2-8.8-3.2c-3,0-5.3,0.5-6.9,1.5c-1.6,0.9-2.7,2.9-3.2,5.9h-9.1C217.1,34.4,217.5,32.3,218.1,31.1z M240.6,49.2
			c-4.5,0-8.2,0.5-11,1.4c-4.1,1.3-6.1,4.1-6.2,8.4c0,2.8,1,5,3,6.4c2,1.4,4.4,2.1,7.1,2.1c6.1,0,9.8-2.4,11.4-7.2
			c0.9-2.8,1.3-6.5,1.3-11.1H240.6z"/>
	</g>
	<g>
		<path class="st4" d="M294.7,4.1h8.8v68.6h-8.8v-6.2c-3.3,5-8.3,7.5-15,7.5c-2.9,0-5.6-0.5-8-1.6C263.2,68.8,259,61,259,49
			c0-7.3,1.6-13.1,4.9-17.5c3.9-5.2,9.3-7.9,16-7.9c5.5,0.1,9.8,1.8,12.9,5.1l1.9,2.3V4.1z M268.2,49.5c0,5,0.9,9,2.7,12
			c2.4,3.9,5.8,5.8,10.3,5.9c9-0.1,13.5-6.5,13.6-19.1c0-3.5-0.6-6.9-1.7-10.1c-0.8-2.3-2.3-4.3-4.5-5.8c-2-1.5-4.3-2.2-6.9-2.2
			c-5,0-8.6,2.2-10.8,6.5C269,40.1,268.1,44.4,268.2,49.5z"/>
	</g>
</g>
</svg>
