<?xml version="1.0" encoding="utf-8"?>
<!-- Generator: Adobe Illustrator 22.1.0, SVG Export Plug-In . SVG Version: 6.00 Build 0)  -->
<svg version="1.1" id="Layer_1" xmlns="http://www.w3.org/2000/svg" xmlns:xlink="http://www.w3.org/1999/xlink" x="0px" y="0px"
	 width="400px" height="400px" viewBox="0 0 400 400" enable-background="new 0 0 400 400" xml:space="preserve">
<g>
	<path fill="none" d="M213.8,112.3c-4.3-0.5-8.8-0.9-13.2-0.9c-0.8,0-1.7,0-2.5,0c-12.4,0.2-24.2,3.4-31.4,13.6
		c-1,2.9-5.6,6.9-1.4,9.5c9.5-0.6,20.4-1.8,26.7,6.4c0,7.3,4.7,16.9-3.2,20.4c-6.5-6-14.2,2.6-21.3-2.3c-3.3-2-5.4,0.3-6.8,3.2
		c-2,18.7,7.8,39.4,25.3,49.8c7.1,2.6,16.6,5,24,1.4c17.8-8.3,25.2-27.3,28.5-44.8c-0.4-3.3-0.3-9.8-5-10c-5.3,3.3-13,1.4-18.6,0
		c-3.3,1.1-3.5,5.9-7.2,6.8l-2.3-1.8c-2-8.3-3.2-20.1,4.5-25.8c8.6-3.5,18.7-5,27.6-2.3c1.7-2.9-0.9-5.1-1.4-7.7
		C232.2,118.3,222.6,114.5,213.8,112.3z M216.1,187.9c-3.6,5.4-9,12.2-16.3,11.8c-8.2,0.6-10-6.1-15.9-10l-0.4-2.7
		C194.3,188.7,206.3,186.6,216.1,187.9z M208.8,175.3c-0.2,0.4-0.4,0.8-0.7,1.1c-0.1,0.2-0.3,0.4-0.4,0.4c-1.2,1.2-2.7,1.6-4.5,1.8
		c-1.9,0.9-2.5,1.2-4.9,1.2c-1.9-0.2-3.1-0.8-4.6-1.5c-0.4,0-0.8,0.1-1.2,0.2c-0.6-0.2-0.8-0.6-0.9-1c-0.6-0.2-1.2-0.4-2-0.6
		c-0.9-0.4-0.7-1.2-0.1-1.9c1.8-2.1,3.5-2.1,5.3-1.7c1.8-0.7,3.8-1.1,5.8-1.1C203.8,172.2,206.9,173.1,208.8,175.3z"/>
	<path fill="none" d="M64.3,131.8C63,118,57.4,105.5,45.7,96.4c-1.1-0.6-2.7-1.7-4.1-1.8c-0.8-0.1-1.6,0.3-2.3,1.4
		c5.3,32.5-15.8,55.1-30.8,79.7c5,4.1,13,3.5,19,2.3c15.9-6.3,31-17.4,49.8-13.6c5.6-9.5,15-18.7,22.6-26.3
		c4.7-4.1,11.2-6.6,14.5-11.3C98.9,116.5,79,126.2,64.3,131.8z"/>
	<path fill="none" d="M227.4,142.6c-0.6,0-1.2,0-1.8,0.1c-3.2,2.1-12.4,0.6-9.1,7.7c5.7-4.5,13.7-1.4,19.5,0.9
		c2.1-1.1,1.7-3.2,1.8-5C236,142.8,231.6,142.5,227.4,142.6z"/>
	<path fill="none" d="M165.8,151.2c4.7-6.5,13-1.4,18.1-0.9v-1.8c-2.8-4.4-8.6-6.6-14.5-6.4c-1.4,0-2.7,0.2-4.1,0.6
		c-2,0.4-3.3,2.2-2.7,4.5C162.3,149.1,162.8,152.6,165.8,151.2z"/>
	<path fill="none" d="M391.8,175.7c-14.2-23.6-35.3-45.3-29.4-76.1c0.6-2.1-0.7-4.2-2.7-4.5c-9.2,3.8-16.3,12.8-20,21.7
		c-1.5,5.3-2.4,10.9-4.5,15.8c-11-5.7-22.8-11.3-36.2-10c-4.8,0.6-11.8,0.9-12.7,5.9c15.2,8.1,27.8,21.7,37.1,36.2
		c6.5-1.1,14.5-0.2,21.3,0.9C360.1,169.8,375.5,186.6,391.8,175.7z"/>
	<path fill="none" d="M262.3,87.4c-0.9-8.7,5.7-18,7.3-26.7c-16.6,1.1-29.8,11.1-43.5,19c-3.2-7.7-6.4-15.4-9.5-23.1l18.1-17.2
		l0.5-2.3l-24.5-1.4c-4.2-7.4-5.9-16.3-10.9-23.1c-4.1,7.7-6.8,15.9-10.9,23.5l-24.4,1.4v1.8L183,56.1c-2.3,8.6-4.4,18-10,24.5
		c-10.9-6.5-21.6-13.6-33.5-18.1c-2.9-0.9-7-2.4-9.5-0.5c3.8,8.3,9,17.2,8.2,26.3c-5-0.9-8.9-4.1-13.6-5.5
		c-5.6-1.5-12.2-4.5-17.7-2.7c9.1,12.7,16.5,25.9,19,41.2c30.1-14.5,65.1-22.5,101.5-16.3c17.1,2.7,32.7,9.7,48,15.4
		c0.6-16,10.7-28.9,17.7-41.7C281.9,78.2,272.6,84.5,262.3,87.4z M217,87.4c-11.3-1.2-23.3,0.3-34,0.5c-1.2-1.2-3.6-3-1.4-4.5
		l17.2-13.1c7.1,4.1,14.6,9.4,20.4,15L217,87.4z"/>
	<path fill="#007042" d="M183.5,187l0.4,2.7c5.9,3.9,7.7,10.6,15.9,10c7.2,0.4,12.7-6.4,16.3-11.8
		C206.3,186.6,194.3,188.7,183.5,187z"/>
	<path fill="#007042" d="M181.6,83.3c-2.2,1.5,0.2,3.3,1.4,4.5c10.7-0.2,22.7-1.7,34-0.5l2.3-2.3c-5.7-5.6-13.3-10.9-20.4-15
		L181.6,83.3z"/>
	<path fill="#007042" d="M399.1,207.4c-23.4,9.2-38.8-14.2-61.2-14c-2.9-3.3-3.6-7.4-5-11.3c25.2-8.1,41.8,28.2,66.6,9.5
		c-1.9-30.7-8.5-59.5-22.6-85.1c-14.8-29.3-42.1-58.2-70.7-75.7C276.8,9.9,237.3-0.3,198.2,0c-32.4,0.3-64.5,7.8-90.4,22.6
		C43.9,55.1,5.4,121,0.5,189.3l1.8,3.6c24,12.8,39.6-15.4,63-12.2c5.3,2.4-1.1,6.5-0.9,10c-1.8,4.5-8.2,2.4-12.3,3.6
		c-16,6.9-32.5,20.4-51.2,13.1c0,0,0.1,1.4,0.3,3.4h0c0.4,5.1,1.1,14.3,1.1,14.3c21,6.7,34.6-15.3,54.4-12.7
		c-0.5,4.4-0.8,9.1-3.2,12.2c-18.1,0.9-29.5,18-48.5,16.8l3.6,14.5c16.5,1.7,27-15.3,43.5-13.6l-0.4,10.9
		c-14.5,1.4-23.9,14.9-38.5,15.9c2,33.5,25.2-5.1,39.8,1.4c0.6,3.6,2.7,7.1,1.4,10.9c-11.8-0.2-19.2,10.1-29.4,13.6
		c1.8,4.2,3,10.3,7.7,11.8c8.8-3.6,15.9-11.3,26.3-10.9c-1.2-3.9-2.3-9.2-1.8-12.7c13.1,3.5,20.7-6.8,29.9-12.7
		c2.1-18.6,15.1-32.8,23.1-48.9c0.9-3.6,1.1-7.1,1.1-10.6c-0.4-19.6-12.2-38.6-2.9-59.1c2.9-8,7.9-18.5,16.3-20.8
		c-15.6,18.6-12.7,47-4.5,67.9c1.6,4.3,2.2,8.2,2.1,12c-0.7,16.6-16.1,29.2-22,44.2c-7.4,15-0.6,32,7.7,44.4
		c-11.9,9.2-22.9,21-38.5,21.3c-4.4-2.1-4.5-8.1-6.8-12.2c-9.2-1.8-16.6,4.5-24,9.1l8.6,10.9c6.3-3,13.6-9.5,20.8-5
		c10.7,12.7-10.4,6.3-13.2,14c3,4.1,6.7,7.1,10.4,10.4c4.4-1.4,7.8-4.8,13.1-4.1c2.1,2.6,4.5,5.1,5.4,8.2l-8.2,5
		c5.9,6,13.3,11.8,20.4,14.5c4.2-14.2,15.6-25.2,20.8-39c1.1-5.3,1.3-11.6,2.7-16.3c15.2,23.7-16.8,37.8-16.8,60.2
		c3.3,3,7.4,4.7,11.3,6.3c-0.6-17.7,14.2-29,20.4-43.9c11.3-23.7-14.8-38.5-23.1-57.5c-7.9-17.2,3.2-33.4,14.1-46.2
		c7.6-8.2,9.5-16.2,8.9-24.2c-1.5-18.2-16.5-36.5-10.2-56.9c3.6-12.7,9.1-27.8,22.2-33.1c-9.5,11-14.5,23.9-15.4,38.5
		c-2.6,19.9,13.3,33.7,14.2,51.4c0.2,3.5-0.3,7.2-1.5,11.1c-7.4,16-24.2,28.1-24,47.1c-2,25,30.8,34.6,27.2,60.3
		c-0.3,22.3-26,34.7-20.4,58.9l14.1,4.6c-8-27.2,20.2-42.3,20.4-66.6c1.4-20.5-20.7-31.3-26.3-48.9c-5.9-17.5,6.9-31.6,16.8-44.9
		c4.8-7.5,6-14.6,5.2-21.5c-2-17.1-15.8-33.2-15.1-51.9c-0.3-17.2,7.2-34.1,22.2-42.1c-4.5,6.5-9.7,12.7-12.2,19.9
		c-9.4,25.4,6.3,47.1,14.1,68.9c0.6,1.8,1,3.5,1.2,5.2c2.9,20.2-17.7,33-21.7,51.4c-5.3,22.3,18.7,32.6,24,51.2
		c11.3,30.3-25.4,48-16.8,78.4c-0.2,8.9,10.3,5.5,15.9,7.3c-13.6-25.1,8.3-45.7,15-67.5c7.4-23.3-14.8-36.4-24-54.4
		c-9.7-20.2,12.3-32.8,17.2-49.8c4.1-11.6,14.5-0.9,21.3-2.3c9.2,1.7,17.2-7.4,24.9-0.9c3.8,15.4,21.6,24.9,21.7,41.7
		c-0.6,26-38.2,39.5-26.2,67.9c9.8,19.8,26.6,42.4,15.4,65.2l14-3.2c9.4-23.4-8-41.4-16.3-60.3c-7.5-21.6,11.3-37.7,22.6-54.3
		c10.7-20.1-6.5-36.6-16.3-52.1c-3.4-6.4-4.1-12.5-3.3-18.3c1.7-12.4,10.2-24,14.1-35.6c8.3-19.8,3.6-44.4-11.8-59.3l0.5-0.5
		c7.7,4.5,14.6,12.5,18.1,20.4c13.2,26.6-5.7,50.1-10.4,75l-0.5,2.9c-0.5,17.5,13.9,25.8,20.8,39.9c11.6,22.6-8.9,38.7-20.4,55.7
		c-18.6,31.9,25.8,50.6,16.8,82.4l13.6-4.5c3.5-17.1-9.4-30.9-17.7-44.8c-11.5-23.3,9.1-41.2,20.8-58.9c10.4-22-7.7-40.6-18.1-57.5
		c-3.3-4.9-4.4-10-4.1-15.2h0c0.5-9.9,6-19.9,10-28.3c7.9-21.1,2.4-46.8-11.3-62.5c9.2,3.8,16,14.1,19,23.1
		c10.9,22.5-2.4,45-6.8,66.1l0,1.6c-0.2,20.3,19,31.5,24.5,49.6c5.3,18.7-9.6,31.7-18.6,45.3c-26.7,27.8,14.9,48.6,14.5,76.1
		c3.9-1.7,9.1-2.4,11.3-6.4c-2-15.2-14.9-26-20.4-39.9c-0.3-6.6-1.8-14.8,2.7-19.9l0.9,0.9c-1.7,22.2,17.7,35.6,23.5,54.8
		c6.8-4.1,13.9-8,19.5-14c-2.1-2.1-5.3-3.8-8.1-5c-1.5-3.3,2.8-6.5,5-9.5l12.7,4.5c3.8-3.5,7.9-6.3,10-10.9c-4.5-3.2-9.5-5.5-15-6.4
		c-0.2-3.5,1.8-6.2,4.1-8.6c7.7-0.3,13.8,3.3,19.9,6.3c3.3-3,7-6.9,8.2-11.3l-16.3-8.2c-11.2-7.1-8.2,8.3-13.6,11.8
		c-15.2-0.6-26.1-11.3-37.6-20.8c1.4-6.9,6.8-12.2,8.6-19c6.6-22.2-11-38.9-20.8-56.6c-2.5-4.3-3.4-8.6-3.4-12.9
		c0.1-12,7.4-24,7.9-36.5c3.8-16.2-3.8-31.7-10-44.8c4.2,2.6,8.8,6,11.4,10.4c8.4,16.6,10.9,39.7,3.2,57.6
		c-1.9,4.8-2.5,9.2-2.3,13.4c1.2,20.9,24.7,35.5,24.9,57.7c9,6.8,17.2,18.1,29.4,14.5c0.9,4.4-1.5,9-1.4,13.1
		c10.9-0.6,18.1,7.6,27.6,10.4c2.3-3.9,6.2-7.9,5.9-12.3c-10.7-3.2-18.4-13.7-30.3-14l2.2-10.4c12.5-0.3,21.8,10.3,33.5,13.1
		c4.1-3,5.4-8.6,6.8-13.6c-14.5-2.3-24.9-14.5-39.4-16.8c0.3-3.6-0.8-7.8,0.9-10.9c13.7,0,22.8,11,35.3,14.1
		c12.1,5.7,8.1-8.6,10.9-14.1c-19.2,0.8-30.8-17-49.4-17.7l-2.3-11.4c20.1-3.3,33.7,18.6,54.4,12.7c2-5.2,1.5-9.6,1.4-14.7
		L399.1,207.4z M100.1,138.1c-7.7,7.6-17.1,16.8-22.6,26.3c-18.9-3.8-34,7.3-49.8,13.6c-6,1.2-14,1.8-19-2.3
		c15-24.6,36.1-47.3,30.8-79.7c0.6-1.1,1.4-1.4,2.3-1.4c1.4,0.1,3,1.3,4.1,1.8c11.6,9.1,17.2,21.6,18.6,35.3
		c14.6-5.6,34.5-15.3,50.3-5C111.3,131.4,104.8,134,100.1,138.1z M165.3,142.6c1.3-0.3,2.7-0.5,4.1-0.6c5.9-0.2,11.7,2,14.5,6.4v1.8
		c-5.1-0.5-13.4-5.6-18.1,0.9c-3,1.3-3.5-2.1-3.2-4.1C162,144.9,163.4,143.1,165.3,142.6z M237.8,135.4c-8.9-2.7-19-1.2-27.6,2.3
		c-7.7,5.7-6.5,17.5-4.5,25.8l2.3,1.8c3.8-0.9,3.9-5.8,7.2-6.8c5.6,1.4,13.3,3.3,18.6,0c4.7,0.2,4.5,6.7,5,10
		c-3.3,17.5-10.7,36.5-28.5,44.8c-7.4,3.6-16.9,1.2-24-1.4c-17.5-10.4-27.3-31.1-25.3-49.8c1.4-2.9,3.5-5.2,6.8-3.2
		c7.1,4.8,14.8-3.8,21.3,2.3c7.8-3.5,3.2-13.1,3.2-20.4c-6.3-8.2-17.2-7-26.7-6.4c-4.2-2.6,0.3-6.6,1.4-9.5
		c7.2-10.2,19.1-13.4,31.4-13.6c0.8,0,1.7,0,2.5,0c4.4,0,8.9,0.4,13.2,0.9c8.8,2.3,18.4,6.1,22.7,15.4
		C236.9,130.3,239.5,132.5,237.8,135.4z M237.8,146.2c-0.1,1.8,0.3,3.9-1.8,5c-5.7-2.3-13.7-5.4-19.5-0.9c-3.3-7.1,5.9-5.6,9.1-7.7
		c0.6,0,1.2,0,1.8-0.1C231.6,142.5,236,142.8,237.8,146.2z M275.4,120.4c-15.3-5.7-30.9-12.7-48-15.4c-36.4-6.2-71.4,1.8-101.5,16.3
		c-2.6-15.3-10-28.5-19-41.2c5.4-1.8,12.1,1.2,17.7,2.7c4.7,1.3,8.6,4.5,13.6,5.5c0.9-9.1-4.4-18-8.2-26.3c2.6-2,6.7-0.5,9.5,0.5
		c11.9,4.5,22.6,11.6,33.5,18.1c5.6-6.5,7.7-15.9,10-24.5l-18.6-16.8v-1.8l24.4-1.4c4.1-7.7,6.8-15.8,10.9-23.5
		c5,6.8,6.6,15.7,10.9,23.1l24.5,1.4l-0.5,2.3l-18.1,17.2c3.2,7.7,6.3,15.4,9.5,23.1c13.7-8,26.9-18,43.5-19
		c-1.5,8.8-8.2,18-7.3,26.7c10.3-2.9,19.6-9.2,30.8-8.6C286.1,91.6,276,104.4,275.4,120.4z M323.4,164.8
		c-9.3-14.5-21.9-28.1-37.1-36.2c0.9-5,7.8-5.3,12.7-5.9c13.4-1.3,25.2,4.2,36.2,10c2.1-5,3-10.6,4.5-15.8c3.6-8.9,10.8-18,20-21.7
		c2,0.3,3.3,2.4,2.7,4.5c-5.9,30.8,15.2,52.5,29.4,76.1c-16.3,10.9-31.7-5.9-47.1-10C337.9,164.7,329.9,163.8,323.4,164.8z"/>
	<path fill="#007042" d="M192.5,178.4c0.4-0.1,0.8-0.1,1.2-0.2c-0.6-0.3-1.3-0.6-2.1-0.8C191.7,177.8,191.9,178.2,192.5,178.4z"/>
	<path opacity="0.99" fill="#FFFFFF" enable-background="new    " d="M192.5,178.4c0.4-0.1,0.8-0.1,1.2-0.2
		c-0.6-0.3-1.3-0.6-2.1-0.8C191.7,177.8,191.9,178.2,192.5,178.4z"/>
	<path fill="#007042" d="M203.2,178.5c1.8-0.1,3.3-0.6,4.5-1.8c0,0,0,0-0.1,0C205.5,177.5,204.2,178.1,203.2,178.5z"/>
	<path opacity="0.99" fill="#FFFFFF" enable-background="new    " d="M203.2,178.5c1.8-0.1,3.3-0.6,4.5-1.8c0,0,0,0-0.1,0
		C205.5,177.5,204.2,178.1,203.2,178.5z"/>
	<path fill="#007042" d="M194.8,173.2c1.4,0.3,2.7,0.8,4.1,0.8c2.4-0.1,5.1-2.8,9,1c0.4,0.4,0.4,0.9,0.2,1.3
		c0.3-0.3,0.5-0.7,0.7-1.1c-1.9-2.1-5-3.1-8.2-3.1C198.6,172.2,196.6,172.6,194.8,173.2z"/>
	<path opacity="0.99" fill="#FFFFFF" enable-background="new    " d="M194.8,173.2c1.4,0.3,2.7,0.8,4.1,0.8c2.4-0.1,5.1-2.8,9,1
		c0.4,0.4,0.4,0.9,0.2,1.3c0.3-0.3,0.5-0.7,0.7-1.1c-1.9-2.1-5-3.1-8.2-3.1C198.6,172.2,196.6,172.6,194.8,173.2z"/>
	<path fill="#007042" d="M191.6,174.8c0.9-0.6,2-1.1,3.2-1.5c-1.8-0.4-3.5-0.4-5.3,1.7c-0.5,0.7-0.8,1.5,0.1,1.9
		c0.8,0.2,1.4,0.4,2,0.6C191.4,176.6,191.8,175.6,191.6,174.8z"/>
	<path fill="#007042" d="M193.7,178.3c1.5,0.7,2.6,1.3,4.6,1.5c2.4,0,3-0.4,4.9-1.2C200.1,178.8,196.5,178.1,193.7,178.3z"/>
	<path fill="#007042" d="M208.1,176.3c-0.1,0.2-0.3,0.3-0.4,0.4C207.9,176.7,208,176.5,208.1,176.3z"/>
	<path fill="#007042" d="M207.9,175.1c-3.9-3.9-6.6-1.1-9-1c-1.4,0-2.8-0.5-4.1-0.8c-1.1,0.4-2.2,0.9-3.2,1.5c0.2,0.8-0.2,1.8,0,2.6
		c0.8,0.3,1.5,0.6,2.1,0.8c2.8-0.2,6.4,0.5,9.5,0.3c1-0.4,2.3-1,4.4-1.7c0,0,0,0,0.1,0c0.1-0.1,0.3-0.3,0.4-0.4
		C208.3,176,208.3,175.5,207.9,175.1z"/>
	<polygon fill="#007042" points="339.1,380.6 346,380.6 346,400 350.7,400 350.7,380.6 357.6,380.6 357.6,376.7 339.1,376.7 	"/>
	<polygon fill="#007042" points="371.9,392.6 367.6,376.7 360.6,376.7 360.6,400 365,400 365,381.6 369.6,400 374.1,400 
		378.7,381.6 378.7,400 383.1,400 383.1,376.7 376.1,376.7 	"/>
</g>
</svg>
