<?xml version="1.0" encoding="utf-8"?>
<!-- Generator: Adobe Illustrator 22.1.0, SVG Export Plug-In . SVG Version: 6.00 Build 0)  -->
<svg version="1.1" id="Layer_1" xmlns="http://www.w3.org/2000/svg" xmlns:xlink="http://www.w3.org/1999/xlink" x="0px" y="0px"
	 width="400px" height="94px" viewBox="0 0 400 94" enable-background="new 0 0 400 94" xml:space="preserve">
<g>
	<path fill="#231F20" d="M138.6,2.4c4.9,0,8.6,2.7,8.6,7.8c0,2.7-1.1,6.3-3,10.9l-21.5,52.5L98.5,19.1c-1.8-4.2-2.8-7.2-2.8-10.2
		c0-3.4,2.8-6.4,8.9-6.4V0H69.2v2.4c7.2,0,9.3,2.5,13.6,12.3l34.1,78.4h1.9l31.8-77.4c3.8-9.2,8.9-13.2,12.7-13.2V0h-24.8V2.4 M0,0
		v2.4c10,0,12.3,2.4,12.3,10.7V74c0,13.1-1.8,14.4-12.3,14.4V91h69.8l7.9-24.8l-1.8-0.5c-7.5,18.7-12.7,21.4-28.5,21.4h-9.6
		c-12.1,0-12.6-0.4-12.6-15.3V16.4c0-11.4,2.2-14,14.4-14V0H0z M289.3,2.4V0h-22.7l-33.4,72.2L198.5,0h-23.2v2.4
		c9.8,0,12,2.9,12,11.9V74c0,13.1-2.4,14.4-12,14.4V91h28.2v-2.5c-9.8,0-11.9-1.3-11.9-14.4V14.4L226.8,91h2.2l35.2-76.6V74
		c0,13.1-1.8,14.4-12.9,14.4V91h38v-2.5c-10.4,0-12.3-1.7-12.3-14.4V13.1C277.1,5.1,279.5,2.4,289.3,2.4 M326.8,17
		c0-12.7,1.8-14.4,12.3-14.4V0h-37.3v2.6c10.4,0,12.3,1.7,12.3,14.4v57c0,12.7-1.8,14.4-12.3,14.4V91h37.3v-2.5
		c-10.4,0-12.3-1.7-12.3-14.4V50c0-2.4,1.2-3.4,4-3.4H371c3,0,4,1.2,4,4.2V74c0,12.7-1.8,14.4-12.3,14.4V91H400v-2.5
		c-10.4,0-12.3-1.7-12.3-14.4V17c0-12.7,1.8-14.4,12.3-14.4V0h-37.3v2.6C373.2,2.6,375,4.3,375,17v21.2c0,3.3-0.8,4.2-3.9,4.2h-40.4
		c-2.8,0-3.9-0.7-3.9-3.2V17z"/>
</g>
</svg>
